<?xml version="1.0" encoding="UTF-8"?>
<svg id="Banana" xmlns="http://www.w3.org/2000/svg" version="1.1" viewBox="0 0 491.52 491.52">
  <!-- Generator: Adobe Illustrator 29.5.1, SVG Export Plug-In . SVG Version: 2.1.0 Build 141)  -->
  <defs>
    <style>
      .st0b {
        fill: #feca5f;
      }

      .st0b, .st1b {
        fill-rule: evenodd;
      }

      .st1b {
        fill: #b38e85;
      }
    </style>
  </defs>
  <path id="Top-Banana" class="st0b" d="M282.68,217.13c1.39,2.85.21,6.28-2.63,7.67-21.2,10.38-41.2,17.36-59.61,22.02-9.34,2.37-18.29,4.14-26.77,5.47-9.88-1.06-19.68-2.62-29.39-4.71.68-2.2,2.64-3.87,5.07-4.05,14.33-1.1,30.56-3.38,48.3-7.87,17.78-4.5,37.04-11.22,57.36-21.17,2.85-1.39,6.28-.21,7.67,2.63h0ZM362.16,152.98c-8.76,10.21-23.72,22.51-43.16,34.47-23.23,14.29-53.17,28.49-86.79,38.48-38.34,11.39-71.74,13.71-99.13,12.52-.31-.01-9.72-.14-18.41-.25,27.05,11.08,63.61,21.53,110.56,21.53,26.79,0,52.17-3.07,74.21-7.73,3.81-2.94,12.07-9.34,12.53-9.67,17.37-12.73,31.54-27.67,40.44-44.05,7.69-14.15,11.41-29.42,9.75-45.29h0Z"/>
  <path id="Botton-Banana" class="st0b" d="M354.86,263.49c-26.37,7.09-59.12,12.19-94.13,12.19-70.24,0-117.97-22.49-146.05-36.98,4.54,42.07,38.53,68.51,81.73,80.53,18.95,5.27,39.64,7.79,60.43,7.66,20.82-.12,41.74-2.9,61.11-8.21,44.64-12.25,80.95-38.03,88.08-75.91-11.31,7.28-29.14,14.8-51.17,20.72h0ZM266.49,288.68c0,3.18-2.58,5.76-5.76,5.76-23.5,0-44.54-2.54-63.2-6.46-18.6-3.91-34.81-9.21-48.72-14.75-2.94-1.17-4.39-4.5-3.22-7.45s4.5-4.39,7.45-3.22c13.33,5.31,28.9,10.4,46.84,14.17,17.88,3.76,38.12,6.19,60.86,6.19,3.18,0,5.76,2.58,5.76,5.76h0Z"/>
  <path id="Brown-Part" class="st1b" d="M147.18,238.46c-18.24-25.6-46.62-65.16-54.77-78.47l-18.14,27.21,39.66,51.5c.32-2.88,2.76-5.12,5.72-5.12,1.1,0,2.13.31,3.01.85,1.14.19,20.91,3.47,22.09,3.65.8.13,1.61.25,2.43.38h0Z"/>
</svg>