<?xml version="1.0" encoding="UTF-8"?>
<svg id="Cherry" xmlns="http://www.w3.org/2000/svg" version="1.1" viewBox="0 0 491.52 491.52">
  <!-- Generator: Adobe Illustrator 29.5.1, SVG Export Plug-In . SVG Version: 2.1.0 Build 141)  -->
  <defs>
    <style>
      .st0c {
        fill: #333;
      }

      .st1c {
        fill: #83d551;
      }

      .st1c, .st2c {
        fill-rule: evenodd;
      }

      .st2c {
        fill: #f42952;
      }
    </style>
  </defs>
  <g id="Left-Cherry-Outline">
    <path id="_625026008" class="st0c" d="M196.7,276.26c12.74,9.24,23.09,23.46,28.93,39.57,5.54,15.31,7.05,32.39,2.7,48.62-5.65,21.09-18.73,38.07-35.31,48.48-16.72,10.5-36.98,14.33-56.82,9.02-19.85-5.32-35.48-18.77-44.71-36.22-9.15-17.3-11.99-38.55-6.34-59.63,4.36-16.29,13.72-30.24,25.69-40.6,12.55-10.87,28.04-17.8,43.71-19.38v-.02c2.38-.24,4.56,1.01,5.64,2.98,3.72,5.91,7.51,9.66,11.89,10.84,4.57,1.23,10.39-.07,18.15-4.31v-.02c2.14-1.17,4.71-.83,6.48.66h0ZM214.82,319.74c-4.69-12.95-12.66-24.43-22.45-32.33-9.05,4.35-16.59,5.43-23.28,3.63-6.65-1.79-12.01-6.26-16.81-13.06-12.15,1.93-24.06,7.64-33.94,16.19-10.3,8.92-18.35,20.9-22.09,34.89-4.87,18.19-2.46,36.47,5.39,51.31,7.77,14.69,20.89,26.01,37.51,30.46,16.63,4.46,33.65,1.22,47.73-7.62,14.21-8.92,25.44-23.54,30.32-41.73,3.71-13.86,2.4-28.53-2.39-41.74h0Z"/>
    <path id="_625025984" class="st0c" d="M167.62,286.49c.27,3.16,3.05,5.49,6.21,5.22,3.16-.27,5.49-3.05,5.22-6.21-.04-.44-14.72-153.11,69.5-213.65,2.57-1.85,3.16-5.44,1.31-8.01s-5.44-3.16-8.01-1.31c-89.58,64.39-74.26,223.49-74.22,223.95h0Z"/>
  </g>
  <g id="Right-Cherry-outline">
    <path id="_625026200" class="st0c" d="M311.27,271.3c15.72,1.31,32,8.17,45.37,19.02,12.64,10.26,22.74,24.12,27.39,40.28,6.03,20.97,3.58,42.26-5.26,59.73-8.91,17.61-24.29,31.34-44.04,37.02h0c-.1.03-.19.06-.29.08-19.65,5.57-39.87,2.09-56.69-8.05-16.76-10.1-30.15-26.85-36.19-47.84h0c-.03-.09-.05-.18-.07-.27-4.58-16.12-3.74-32.79,1.15-47.75,5.16-15.8,14.85-29.73,27.46-39.15h0c1.96-1.47,4.56-1.5,6.52-.26,6.16,3.08,11.3,4.31,15.65,3.06,4.54-1.3,8.85-5.41,13.32-13.04h-.02c1.21-2.07,3.5-3.11,5.72-2.81h0ZM349.39,299.23c-10.68-8.67-23.43-14.39-35.91-16.11-5.51,8.39-11.41,13.2-18.08,15.11-6.59,1.88-13.48.82-21.09-2.53-9.43,7.92-16.69,18.96-20.75,31.38-4.21,12.88-4.93,27.21-1.01,41.05.05.15.1.31.14.47,5.23,17.98,16.68,32.3,31,40.93,14.17,8.54,31.16,11.49,47.63,6.83.15-.05.3-.09.45-.13,16.43-4.79,29.26-16.3,36.74-31.07,7.58-14.98,9.66-33.29,4.45-51.4-3.96-13.78-12.66-25.67-23.56-34.52h0Z"/>
    <path id="_625025288" class="st0c" d="M291.81,295.12c1.88,2.56,5.47,3.11,8.03,1.24,2.56-1.88,3.11-5.47,1.24-8.03-.26-.36-91.54-123.56-50.6-218.85,1.25-2.92-.09-6.31-3.01-7.56s-6.31.09-7.56,3.01c-43.55,101.37,51.63,229.82,51.9,230.19h0Z"/>
  </g>
  <g id="Right-Leaf-Outline">
    <path id="_625025480" class="st0c" d="M402.48,169.2c-10.69-11.4-27.1-27.77-45.96-42.7-23.62-18.69-51-35.11-75.29-36.18-11.41-.5-20.63,2.51-27.44,7.6-5.6,4.19-9.59,9.78-11.8,15.93-2.23,6.2-2.7,12.99-1.25,19.54,1.73,7.78,6.2,15.23,13.69,20.95,18.1,13.83,50.46,18.18,81.82,18.62,25.32.36,49.95-1.87,66.22-3.76h0ZM363.63,117.5c24.46,19.36,44.84,41,54.52,51.81.94.88,1.6,2.08,1.78,3.45.42,3.15-1.8,6.05-4.95,6.47l-.76-5.71.74,5.69c-14.58,1.94-46.06,5.68-78.83,5.22-33.42-.47-68.24-5.35-88.66-20.96-9.77-7.46-15.63-17.29-17.92-27.61-1.92-8.67-1.3-17.66,1.65-25.88,2.97-8.26,8.28-15.73,15.72-21.29,8.79-6.57,20.52-10.48,34.81-9.85,27.15,1.2,56.72,18.72,81.9,38.66h0Z"/>
    <path id="_625025336" class="st0c" d="M237.64,104.4c-3.17-.2-5.9,2.21-6.1,5.38-.2,3.17,2.21,5.9,5.38,6.1.11,0,37.98,2.18,98.6,42.2,2.65,1.75,6.21,1.03,7.97-1.62,1.75-2.65,1.03-6.21-1.62-7.97-63.19-41.72-104.1-44.08-104.22-44.09h0Z"/>
  </g>
  <g id="Left-Leaf-Outline">
    <path id="_625025192" class="st0c" d="M72.61,204.02c4.75-7.92,14.79-23.75,27.59-38.64,13.4-15.58,29.92-30.19,47.07-34.3,9.26-2.22,17.45-1.13,24.07,2.08,5.66,2.74,10.14,7.01,13.16,12.09,3,5.05,4.55,10.92,4.39,16.92-.2,7.13-2.81,14.37-8.3,20.54-11.11,12.47-32.43,19.82-53.36,24.17-20.3,4.22-40.29,5.68-49.59,6.22h0c-3.18.2-5.9-2.22-6.09-5.4-.08-1.36.32-2.64,1.06-3.67h0ZM108.93,172.85c-8.44,9.81-15.62,20.05-20.77,27.96,9.95-.86,23.3-2.4,36.73-5.19,18.93-3.93,37.95-10.29,47.11-20.57,3.59-4.03,5.29-8.68,5.42-13.2.1-3.79-.89-7.52-2.81-10.75-1.9-3.19-4.71-5.88-8.26-7.59-4.39-2.13-9.96-2.81-16.42-1.27-14.31,3.43-28.89,16.54-40.99,30.61h0Z"/>
    <path id="_625025720" class="st0c" d="M180.35,152.72c3.07-.8,4.91-3.93,4.12-7s-3.93-4.91-7-4.12c-.07.02-25.59,6.5-60.01,40.17-2.26,2.22-2.29,5.86-.07,8.12,2.22,2.26,5.86,2.29,8.12.07,32.22-31.52,54.77-37.23,54.84-37.25Z"/>
  </g>
  <path id="LEft-CHerry" class="st2c" d="M192.37,287.41c-9.05,4.35-16.59,5.43-23.28,3.63-6.65-1.79-12.01-6.26-16.81-13.06-12.15,1.93-24.06,7.64-33.94,16.19-10.3,8.92-18.35,20.9-22.09,34.89-4.87,18.19-2.46,36.47,5.39,51.31,7.77,14.69,20.89,26.01,37.51,30.46,16.63,4.46,33.65,1.22,47.73-7.62,14.21-8.92,25.44-23.54,30.32-41.73,3.71-13.86,2.4-28.53-2.39-41.74-4.69-12.95-12.66-24.43-22.45-32.33h0Z"/>
  <path id="Right-Cherry" class="st2c" d="M274.31,295.7c-9.43,7.92-16.69,18.96-20.75,31.38-4.21,12.88-4.93,27.21-1.01,41.05.05.15.1.31.14.47,5.23,17.98,16.68,32.3,31,40.93,14.17,8.54,31.16,11.49,47.63,6.83.15-.05.3-.09.45-.13,16.43-4.79,29.26-16.3,36.74-31.07,7.58-14.98,9.66-33.29,4.45-51.4-3.96-13.78-12.66-25.67-23.56-34.52-10.68-8.67-23.43-14.39-35.91-16.11-5.51,8.39-11.41,13.2-18.08,15.11-6.59,1.88-13.48.82-21.09-2.53h0Z"/>
  <path id="Right-Leaf-Green" class="st1c" d="M254.44,154.34c18.1,13.83,50.46,18.18,81.82,18.62,25.32.36,49.95-1.87,66.22-3.76-10.69-11.4-27.1-27.77-45.96-42.7-23.62-18.69-51-35.11-75.29-36.18-11.41-.5-20.63,2.51-27.44,7.6-2.97,2.22-5.49,4.84-7.53,7.73,15.17,2.9,49.44,12.37,95.6,42.85,2.65,1.75,3.37,5.32,1.62,7.97s-5.32,3.37-7.97,1.62c-48.79-32.21-82.84-39.9-94.33-41.68-.77,2.8-1.2,5.69-1.26,8.6,0,.9.02,1.79.04,2.69.1,1.91.36,3.82.78,5.7,1.73,7.78,6.2,15.23,13.69,20.95h0Z"/>
  <path id="Left-Leaf-Green" class="st1c" d="M117.39,189.9c-2.22-2.26-2.19-5.9.07-8.12,22.37-21.88,40.98-32.28,51.28-36.89-.76-.51-1.56-.97-2.4-1.38-4.39-2.13-9.96-2.81-16.42-1.27-14.31,3.43-28.89,16.54-40.99,30.61-8.44,9.81-15.62,20.05-20.77,27.96,9.95-.86,23.3-2.4,36.73-5.19,18.93-3.93,37.95-10.29,47.11-20.57,3.59-4.03,5.29-8.68,5.42-13.2.07-2.63-.39-5.24-1.32-7.67-7.99,3.16-26.61,12.33-50.58,35.78-2.26,2.22-5.9,2.19-8.12-.07h0Z"/>
</svg>