<?xml version="1.0" encoding="UTF-8"?>
<svg id="Juice" xmlns="http://www.w3.org/2000/svg" version="1.1" viewBox="0 0 512 512">
  <!-- Generator: Adobe Illustrator 29.5.1, SVG Export Plug-In . SVG Version: 2.1.0 Build 141)  -->
  <defs>
    <style>
      .st0j {
        fill: #d5d1d1;
      }

      .st1j {
        fill: #7d1a00;
      }

      .st2j {
        fill: #e77200;
      }

      .st3j {
        fill: #cc5600;
      }

      .st4j {
        fill: #fda400;
      }

      .st5j {
        fill: #fdc734;
      }
    </style>
  </defs>
  <path id="Glass" class="st0j" d="M241.63,467H99.7c-20.8.05-38.59-14.19-42.06-33.66C45.76,366,21.33,205.26,21.33,21.33h298.67c0,183.93-24.43,344.66-36.32,412.01-3.47,19.47-21.26,33.71-42.06,33.66Z"/>
  <path id="Dark-Juice" class="st4j" d="M298.56,42.67H42.77c1.42,152.04,17.6,287.59,29.15,365.87,1.54,10.45,10.54,18.18,21.1,18.13h155.3c10.57.05,19.56-7.68,21.1-18.13,11.55-78.28,27.73-213.84,29.15-365.87Z"/>
  <path id="Light-Juice" class="st5j" d="M204.15,42.67H42.77c1.34,152.04,16.67,287.59,27.6,365.87,1.46,10.45,9.98,18.18,19.98,18.13h83.89c11.47-78.52,28.49-221.48,29.9-384Z"/>
  <circle id="Fruit-Dark-Part" class="st3j" cx="362.67" cy="362.67" r="128"/>
  <path id="Fruit-Light-Part" class="st2j" d="M328.32,237.84c-44.64,10.22-80.66,47.45-90.56,93.57-.12.58-.25,1.16-.36,1.74-13.89,68.97,47.26,132.15,114.01,117.8.56-.12,1.12-.25,1.68-.37,44.64-10.22,80.66-47.45,90.56-93.57.12-.58.25-1.16.36-1.74,13.89-68.97-47.26-132.15-114.01-117.8-.56.12-1.12.25-1.68.37Z"/>
  <path id="Fruit-Top-Part" class="st1j" d="M362.67,245h-21.33c0-40.33,33.2-59.29,50.75-63.68l5.17,20.69c-1.36.36-34.58,9.4-34.58,42.99Z"/>
</svg>