<?xml version="1.0" encoding="UTF-8"?>
<svg id="Pink-Fruit" xmlns="http://www.w3.org/2000/svg" version="1.1" viewBox="0 0 512 512">
  <!-- Generator: Adobe Illustrator 29.5.1, SVG Export Plug-In . SVG Version: 2.1.0 Build 141)  -->
  <defs>
    <style>
      .st0 {
        fill: #ed5154;
      }

      .st1 {
        fill: #f7eed1;
      }

      .st2 {
        fill: #d9e584;
      }

      .st3 {
        fill: #f3726f;
      }

      .st4 {
        fill: #049146;
      }
    </style>
  </defs>
  <g id="Fruits">
    <path id="Leaf" class="st4" d="M235.71,52.7c-25.18-29.22-58.83-25.7-58.83-25.7,0,0-8.47,32.76,16.7,62,25.17,29.24,58.82,25.69,58.82,25.69,0,0,8.48-32.77-16.69-61.99Z"/>
    <path id="Leaf-Outline" d="M256,40.12c-2.76,0-5,2.24-5,5v35.88c-9.04-31.62-37.71-53.6-70.6-54.11-2.24,0-3.52.13-3.52.13,0,0-8.47,32.76,16.7,62,13.82,16.21,34,25.63,55.3,25.82h2.12v10.76c0,2.76,2.24,5,5,5s5-2.24,5-5h0V45.12c0-2.76-2.24-5-5-5ZM247,108.35c-18.76-.69-36.36-9.24-48.5-23.55-12.31-14.16-18.15-32.81-16.11-51.46,37.39,1.52,66.47,33.05,64.95,70.44-.06,1.52-.17,3.04-.34,4.56h0Z"/>
    <path id="Light-Green-Outline" class="st1" d="M414.48,326.64c0,87.54-70.96,158.5-158.5,158.5s-158.5-70.96-158.5-158.5S168.48,125.12,255.96,125.12s158.52,114,158.52,201.52Z"/>
    <path id="Green-Outline" class="st2" d="M256,145c17.08,0,34.26,5.41,51,16.08,16.07,10.22,31.62,25.33,45,43.69,26.29,36.16,42.62,82.87,42.62,121.91,0,76.56-62.07,138.63-138.63,138.63s-138.63-62.07-138.63-138.63c0-39,16.33-85.75,42.62-121.91,13.35-18.36,28.9-33.47,45-43.69,16.78-10.67,34-16.08,51-16.08M255.98,125.16c-87.52,0-158.48,114-158.48,201.52s70.96,158.5,158.5,158.5,158.5-70.96,158.5-158.5-71-201.52-158.48-201.52h-.04Z"/>
    <path id="Middle-Light-Pink" class="st3" d="M380.29,322c0,68.64-55.65,124.29-124.29,124.29s-124.29-55.65-124.29-124.29,55.65-158,124.29-158,124.29,89.36,124.29,158Z"/>
    <path id="Middle-Pink-Left" class="st0" d="M246.67,383.45c-42.9.49-78.08-33.9-78.57-76.8-.49-42.9,33.9-78.08,76.8-78.57.59,0,1.18,0,1.76,0"/>
    <path id="Middle-Pink-right" class="st0" d="M265.33,228.08c42.9-.49,78.08,33.9,78.57,76.8.49,42.9-33.9,78.08-76.8,78.57-.59,0-1.17,0-1.76,0"/>
  </g>
  <g id="Fruit-Outline">
    <path d="M256,135.12c19,0,37.93,5.93,56.32,17.62,17.1,10.87,33.58,26.85,47.65,46.2,13.84,19.18,24.82,40.25,32.61,62.58,7.78,22.32,11.9,44.84,11.9,65.12,0,82.01-66.49,148.5-148.5,148.5s-148.5-66.49-148.5-148.5c0-20.28,4.12-42.8,11.9-65.12,7.79-22.33,18.78-43.41,32.62-62.58,14.07-19.35,30.55-35.33,47.65-46.2,18.42-11.69,37.35-17.62,56.35-17.62M256,125.12c-87.52,0-158.48,114-158.48,201.52s70.96,158.5,158.5,158.5,158.5-70.96,158.5-158.5-71-201.52-158.48-201.52h-.04Z"/>
  </g>
</svg>