<?xml version="1.0" encoding="UTF-8"?>
<svg id="_Purple-Fruit" xmlns="http://www.w3.org/2000/svg" version="1.1" viewBox="0 0 512 512">
  <!-- Generator: Adobe Illustrator 29.5.1, SVG Export Plug-In . SVG Version: 2.1.0 Build 141)  -->
  <defs>
    <style>
      .st0p {
        fill: #92c437;
      }

      .st1p {
        fill: #bd226f;
      }
    </style>
  </defs>
  <ellipse id="Left-Leaf" class="st0p" cx="201" cy="161" rx="65" ry="45"/>
  <ellipse id="Right-Leaf" class="st0p" cx="311" cy="161" rx="65" ry="45"/>
  <path id="Leaf-Outline" d="M311,116c-19.55,0-37.06,6-49,15.43,1.59-19.6,12.07-54.31,64.94-63.25,3.17-.43,5.39-3.35,4.95-6.52-.43-3.17-3.35-5.39-6.52-4.95-.13.02-.25.04-.38.06-44,7.44-61.92,31.52-69.2,50.4-2.99,7.91-4.81,16.21-5.38,24.65-11.88-9.68-29.61-15.82-49.42-15.82-35.9,0-65,20.15-65,45s29.1,45,65,45c23.17,0,43.49-8.4,55-21,11.51,12.63,31.83,21,55,21,35.9,0,65-20.15,65-45s-29.1-45-65-45ZM201,195.13c-29.34,0-54.13-15.63-54.13-34.13s24.79-34.13,54.13-34.13c21,0,39.69,8,48.6,19.37-4.8,9.25-4.8,20.27,0,29.52-8.91,11.35-27.6,19.37-48.6,19.37ZM311,195.13c-21,0-39.69-8-48.6-19.37,4.8-9.25,4.8-20.27,0-29.52,8.91-11.35,27.59-19.37,48.6-19.37,29.34,0,54.13,15.63,54.13,34.13s-24.79,34.13-54.13,34.13Z"/>
  <circle id="Fruit-Purple-Part" class="st1p" cx="256" cy="316" r="170"/>
  <g id="Fruit-Outline">
    <path d="M256,156c88.37,0,160,71.64,159.99,160.01,0,88.37-71.64,160-160.01,159.99-88.37,0-160-71.64-159.99-160.01,0-42.43,16.86-83.13,46.87-113.13,29.94-30.1,70.68-46.97,113.14-46.86M256,146c-93.89,0-170,76.11-170,170s76.11,170,170,170,170-76.11,170-170-76.11-170-170-170Z"/>
  </g>
</svg>